<svg xmlns="http://www.w3.org/2000/svg" width="249" height="46" viewBox="0 0 249 46">
    <defs>
        <linearGradient id="a" x1="33.673%" x2="66.038%" y1="1.191%" y2="99.125%">
            <stop offset="0%" stop-color="#2F54EB"/>
            <stop offset="100%" stop-color="#2F54EB" stop-opacity=".842"/>
        </linearGradient>
    </defs>
    <g fill="none" fill-rule="evenodd">
        <path fill="url(#a)" fill-rule="nonzero" d="M0 26l7.758-12.915L.484.8h6.958L14.4 13.08 6.99 25.996z" transform="translate(8 9)"/>
        <path fill="#2F54EB" d="M22.942 34.995L20.6 30.619l3.23-5.519L29.6 35zM20.6 13.215L22.482 9.8H29.6l-5.548 9z" opacity=".5"/>
        <g fill="#000" fill-opacity=".85">
            <path d="M50.33 11.672h5.703l5.613 14.732 5.673-14.732h5.643V32.7h-3.564V15.236h-.06L62.953 32.7h-2.614l-6.385-17.464h-.06V32.7H50.33V11.672zm24.978 0h4.306l5.732 15.89 5.91-15.89h4.04L86.802 32.7h-3.238l-8.256-21.028zm22.245 0h7.069c1.01 0 1.985.1 2.925.297.94.198 1.767.53 2.48.995a5.105 5.105 0 0 1 1.708 1.871c.426.783.638 1.758.638 2.926 0 1.327-.227 2.396-.683 3.208a4.889 4.889 0 0 1-1.841 1.885c-.772.446-1.668.748-2.688.906-1.02.159-2.084.238-3.193.238h-2.673V32.7h-3.742V11.672zm6 9.118c.534 0 1.089-.02 1.663-.06a5.108 5.108 0 0 0 1.589-.355 2.82 2.82 0 0 0 1.188-.891c.307-.397.46-.95.46-1.664 0-.653-.139-1.173-.416-1.559a2.754 2.754 0 0 0-1.069-.89 4.51 4.51 0 0 0-1.455-.402c-.535-.06-1.05-.089-1.545-.089h-2.673v5.91h2.258zm22.393-5.405a3.671 3.671 0 0 0-1.663-1.47 5.298 5.298 0 0 0-2.168-.46c-.554 0-1.099.069-1.633.207a4.848 4.848 0 0 0-1.44.624 3.122 3.122 0 0 0-1.026 1.099c-.257.455-.386.99-.386 1.604 0 .475.075.896.223 1.262.149.366.391.698.728.995.336.297.792.574 1.366.832.574.257 1.277.514 2.109.772.811.257 1.598.534 2.36.831a7.96 7.96 0 0 1 2.02 1.129 5.004 5.004 0 0 1 1.396 1.708c.347.683.52 1.54.52 2.569 0 1.05-.208 1.96-.624 2.732a5.718 5.718 0 0 1-1.648 1.916 7.15 7.15 0 0 1-2.361 1.128c-.891.248-1.812.372-2.762.372-.614 0-1.228-.055-1.842-.164a8.832 8.832 0 0 1-1.767-.505 7.176 7.176 0 0 1-1.589-.89 5.367 5.367 0 0 1-1.277-1.352l2.139-1.752a4.397 4.397 0 0 0 1.9 1.752 5.818 5.818 0 0 0 4.203.356 4.914 4.914 0 0 0 1.47-.698 3.803 3.803 0 0 0 1.07-1.143c.276-.455.415-.98.415-1.574 0-.654-.109-1.183-.327-1.59-.217-.405-.554-.756-1.01-1.053-.455-.297-1.029-.565-1.722-.802-.693-.238-1.505-.515-2.435-.832a15.415 15.415 0 0 1-2.08-.817 6.387 6.387 0 0 1-1.648-1.128 4.82 4.82 0 0 1-1.099-1.604c-.267-.624-.4-1.371-.4-2.242 0-1.01.197-1.891.593-2.644a5.569 5.569 0 0 1 1.604-1.886 7.293 7.293 0 0 1 2.287-1.143 9.186 9.186 0 0 1 2.673-.386c1.188 0 2.272.183 3.252.55.98.366 1.856 1.004 2.629 1.915l-2.05 1.782zm13.722 5.376h-4.099v6.95c0 .455.01.876.03 1.262.02.386.099.722.237 1.01.14.287.347.514.624.683.277.168.673.252 1.188.252.337 0 .683-.04 1.04-.119.356-.079.693-.198 1.01-.356l.089 2.109a5.283 5.283 0 0 1-1.322.386c-.485.079-.946.118-1.381.118-.832 0-1.495-.108-1.99-.326-.495-.218-.881-.525-1.158-.921-.278-.396-.46-.886-.55-1.47a12.96 12.96 0 0 1-.133-1.945V20.76h-3.03V18.8h3.03v-3.95h2.316v3.95h4.099v1.96zm2.673-.179a6.53 6.53 0 0 1 2.54-1.618 8.896 8.896 0 0 1 2.984-.52c2.06 0 3.544.485 4.455 1.455.91.97 1.366 2.446 1.366 4.426v5.97c0 .395.02.806.06 1.232.04.426.089.817.148 1.173h-2.227a4.866 4.866 0 0 1-.134-1.054c-.01-.386-.015-.728-.015-1.025h-.06a5.437 5.437 0 0 1-1.826 1.752c-.762.456-1.678.683-2.747.683-.713 0-1.381-.089-2.005-.267a5.01 5.01 0 0 1-1.633-.787 3.89 3.89 0 0 1-1.114-1.292c-.277-.515-.416-1.109-.416-1.782 0-1.148.297-2.05.891-2.703a5.407 5.407 0 0 1 2.213-1.455 10.882 10.882 0 0 1 2.85-.594c1.02-.08 1.956-.119 2.808-.119h.89v-.415c0-1.01-.301-1.773-.905-2.287-.604-.515-1.45-.773-2.54-.773-.752 0-1.49.124-2.212.372a5.313 5.313 0 0 0-1.916 1.143l-1.455-1.515zm6.712 5.436c-1.485 0-2.663.207-3.534.623-.872.416-1.307 1.1-1.307 2.05 0 .87.292 1.49.876 1.856.584.366 1.312.55 2.183.55.673 0 1.262-.115 1.767-.342.505-.228.926-.53 1.262-.906a3.91 3.91 0 0 0 .773-1.322 5.394 5.394 0 0 0 .297-1.618v-.891h-2.317zm8.88-3.92c0-.635-.02-1.228-.06-1.783-.039-.554-.059-1.06-.059-1.515h2.198c0 .377.01.753.03 1.129.02.376.03.762.03 1.158h.06a4.01 4.01 0 0 1 .667-.98 4.816 4.816 0 0 1 1.025-.846 5.477 5.477 0 0 1 1.336-.594 5.557 5.557 0 0 1 1.604-.223c.159 0 .317.01.475.03.159.02.317.06.476.119l-.149 2.346a4.318 4.318 0 0 0-1.247-.178c-1.426 0-2.46.46-3.104 1.38-.643.921-.965 2.184-.965 3.787V32.7h-2.317V22.097zm18.058-1.337h-4.099v6.95c0 .455.01.876.03 1.262.02.386.099.722.238 1.01.138.287.346.514.623.683.277.168.673.252 1.188.252.337 0 .683-.04 1.04-.119.356-.079.693-.198 1.01-.356l.089 2.109a5.283 5.283 0 0 1-1.322.386c-.485.079-.945.118-1.381.118-.832 0-1.495-.108-1.99-.326-.495-.218-.881-.525-1.158-.921-.277-.396-.46-.886-.55-1.47a12.96 12.96 0 0 1-.133-1.945V20.76h-3.03V18.8h3.03v-3.95h2.316v3.95h4.099v1.96zm15.266 9.415c-.832 1.069-1.743 1.816-2.733 2.242-.99.426-2.138.638-3.445.638-1.089 0-2.069-.193-2.94-.579a6.625 6.625 0 0 1-2.213-1.559 6.838 6.838 0 0 1-1.396-2.317 8.217 8.217 0 0 1-.49-2.85c0-1.07.178-2.055.535-2.956.356-.9.851-1.673 1.485-2.317a6.674 6.674 0 0 1 2.257-1.5c.871-.356 1.822-.534 2.851-.534.97 0 1.861.163 2.673.49.812.327 1.51.802 2.094 1.426.584.623 1.035 1.386 1.351 2.287.317.9.476 1.925.476 3.073v.743h-11.227c.04.594.183 1.163.43 1.708.248.544.57 1.02.966 1.425a4.46 4.46 0 0 0 1.396.966 4.266 4.266 0 0 0 1.752.356c1.01 0 1.861-.178 2.554-.535.693-.356 1.317-.88 1.871-1.574l1.753 1.366zm-1.99-5.673c-.04-1.188-.426-2.139-1.159-2.851-.732-.713-1.742-1.07-3.029-1.07s-2.326.357-3.118 1.07c-.792.712-1.268 1.663-1.426 2.85h8.732zm6.088-2.406c0-.634-.02-1.227-.06-1.782-.039-.554-.059-1.06-.059-1.515h2.198c0 .377.01.753.03 1.129.02.376.03.762.03 1.158h.06a4.01 4.01 0 0 1 .667-.98 4.816 4.816 0 0 1 1.025-.846 5.477 5.477 0 0 1 1.336-.594 5.557 5.557 0 0 1 1.604-.223c.159 0 .317.01.475.03.159.02.317.06.476.119l-.149 2.346a4.318 4.318 0 0 0-1.247-.178c-1.426 0-2.46.46-3.104 1.38-.643.921-.965 2.184-.965 3.787V32.7h-2.317V22.097zm10.87-10.425h2.495v9.089h.357l9.563-9.089h3.594l-10.395 9.594 10.9 11.434h-3.653l-10.01-10.692h-.356V32.7h-2.495V11.672zM224.73 18.8h2.316v13.9h-2.316V18.8zm-.535-5.435c0-.455.163-.851.49-1.188a1.611 1.611 0 0 1 1.203-.505c.475 0 .876.169 1.203.505.326.337.49.733.49 1.188 0 .495-.159.901-.475 1.218-.317.317-.723.475-1.218.475s-.901-.158-1.218-.475c-.317-.317-.475-.723-.475-1.218zm15.058 7.396h-4.099v6.95c0 .455.01.876.03 1.262.02.386.099.722.238 1.01.138.287.346.514.623.683.277.168.673.252 1.188.252.337 0 .683-.04 1.04-.119.356-.079.693-.198 1.01-.356l.089 2.109a5.283 5.283 0 0 1-1.322.386c-.485.079-.945.118-1.381.118-.832 0-1.495-.108-1.99-.326-.495-.218-.881-.525-1.158-.921-.277-.396-.46-.886-.55-1.47a12.96 12.96 0 0 1-.133-1.945V20.76h-3.03V18.8h3.03v-3.95h2.316v3.95h4.099v1.96z"/>
        </g>
    </g>
</svg>
