<svg xmlns="http://www.w3.org/2000/svg" width="15" height="15" viewBox="0 0 15 15">
    <g fill="none" fill-rule="evenodd">
        <path d="M0 0h15v15H0z"/>
        <path fill="#000" fill-opacity=".45" fill-rule="nonzero" d="M14.112 7.496c-.004-.082-.13-.488-.306-.91-.18-.435-.485-1.065-.907-1.59a6.02 6.02 0 0 0-2.024-1.64c-.971-.488-2.108-.734-3.376-.734-1.268 0-2.404.248-3.375.735a6.06 6.06 0 0 0-2.025 1.638c-.422.527-.725 1.157-.905 1.592-.176.422-.3.828-.305.91v.006c.005.082.13.488.306.911.182.435.485 1.065.906 1.59a6.02 6.02 0 0 0 2.024 1.639c.977.489 2.112.736 3.375.736 1.264 0 2.4-.247 3.375-.736a6.055 6.055 0 0 0 2.024-1.638c.422-.526.727-1.156.907-1.59.176-.423.302-.829.306-.91V7.5v-.005zm-1.087.003c-.083.254-.407 1.174-.943 1.842l-.007.008a5 5 0 0 1-1.675 1.356c-.827.415-1.806.626-2.906.626-1.101 0-2.078-.211-2.906-.626a4.977 4.977 0 0 1-1.674-1.358c-.54-.67-.865-1.594-.948-1.85.083-.255.409-1.176.948-1.85a5.006 5.006 0 0 1 1.675-1.356c.83-.415 1.808-.624 2.91-.624 1.105 0 2.083.209 2.904.624a4.977 4.977 0 0 1 1.675 1.357c.539.674.864 1.596.947 1.85zM7.5 4.949c-1.4 0-2.539 1.139-2.539 2.538a2.543 2.543 0 0 0 2.539 2.538 2.543 2.543 0 0 0 2.538-2.538A2.542 2.542 0 0 0 7.5 4.948zm1.494 2.538c0 .398-.156.773-.438 1.056a1.484 1.484 0 0 1-1.056.438c-.399 0-.774-.155-1.057-.438a1.484 1.484 0 0 1-.438-1.056c0-.399.156-.774.438-1.056A1.484 1.484 0 0 1 7.5 5.993c.398 0 .773.155 1.056.438.282.282.438.657.438 1.056z"/>
    </g>
</svg>
